<svg width="40" height="40" viewBox="0 0 40 40" fill="none" xmlns="http://www.w3.org/2000/svg">
<path d="M31.6667 15.0333H8.33337C6.95266 15.0333 5.83337 16.1526 5.83337 17.5333C5.83337 18.914 6.95266 20.0333 8.33337 20.0333H31.6667C33.0474 20.0333 34.1667 18.914 34.1667 17.5333C34.1667 16.1526 33.0474 15.0333 31.6667 15.0333Z" stroke="white" stroke-width="2.3" stroke-linecap="round"/>
<path d="M9.16663 20.0333V29.7C9.16663 31.5668 9.16663 32.5003 9.52994 33.2133C9.84951 33.8405 10.3594 34.3505 10.9867 34.67C11.6997 35.0333 12.6331 35.0333 14.5 35.0333H25.5C27.3668 35.0333 28.3003 35.0333 29.0133 34.67C29.6405 34.3505 30.1505 33.8405 30.47 33.2133C30.8333 32.5003 30.8333 31.5668 30.8333 29.7V20.0333" stroke="white" stroke-width="2.3" stroke-linecap="round"/>
<path d="M20.8334 10.0333V15.0333H15.8334C13.072 15.0333 10.8334 12.7947 10.8334 10.0333C10.8334 7.27191 13.072 5.03333 15.8334 5.03333C18.5949 5.03333 20.8334 7.27191 20.8334 10.0333Z" stroke="white" stroke-width="2.3" stroke-linecap="round"/>
<path d="M20.8334 11.7V15.0333H24.1667C26.0077 15.0333 27.5 13.5409 27.5 11.7C27.5 9.85902 26.0077 8.36664 24.1667 8.36664C22.3257 8.36664 20.8334 9.85902 20.8334 11.7Z" stroke="white" stroke-width="2.3" stroke-linecap="round"/>
<path d="M20.8335 20.0333V35.0333" stroke="white" stroke-width="2.3" stroke-linecap="round"/>
</svg>
