<svg width="345" height="80" viewBox="0 0 345 80" fill="none" xmlns="http://www.w3.org/2000/svg">
<g clip-path="url(#clip0_1543_3778)">
<path d="M245.68 59.5526V19.4475H253.106V36.6474H261.556V19.4475H269.147V59.5526H261.556V42.3807H253.106V59.5526H245.68Z" fill="#DDBB36"/>
<path d="M277.906 59.5526V19.4475H285.333V59.5526H277.906Z" fill="#DDBB36"/>
<path d="M292.211 19.4475H299.703L305.38 52.1692L311.057 19.4475H317.889L310.595 59.5526H299.505L292.211 19.4475Z" fill="#DDBB36"/>
<path d="M324.735 59.5526V19.4475H345V25.1808H332.161V36.3677H342.36V42.073H332.161V53.8193H345V59.5526H324.735Z" fill="#DDBB36"/>
<path d="M96 49.9318V29.0682C96 25.8427 96.9462 23.3629 98.8385 21.6289C100.731 19.8763 103.481 19 107.09 19C110.698 19 113.449 19.8763 115.341 21.6289C117.234 23.3629 118.18 25.8427 118.18 29.0682V32.9836H111.15V28.6767C111.15 26.0477 109.873 24.7333 107.321 24.7333C104.746 24.7333 103.459 26.0477 103.459 28.6767V50.3233C103.459 52.9336 104.746 54.2387 107.321 54.2387C109.873 54.2387 111.15 52.9336 111.15 50.3233V42.94H107.783V37.2067H118.18V49.9318C118.18 53.1573 117.234 55.6464 115.341 57.399C113.449 59.133 110.698 60 107.09 60C103.481 60 100.731 59.133 98.8385 57.399C96.9462 55.6464 96 53.1573 96 49.9318Z" fill="#26AD60"/>
<path d="M126.345 59.5525V19.4475H137.567C141.374 19.4475 144.157 20.2026 145.917 21.7128C147.7 23.2231 148.591 25.5443 148.591 28.6767V31.837C148.591 35.9575 146.963 38.6703 143.706 39.9754C145.488 40.6094 146.754 41.6348 147.502 43.0518C148.272 44.4688 148.657 46.2867 148.657 48.5055V54.6862C148.657 56.905 148.921 58.5271 149.449 59.5525H141.891C141.715 59.0864 141.594 58.7415 141.528 58.5177C141.462 58.2754 141.385 57.8279 141.297 57.1753C141.231 56.5041 141.198 55.6558 141.198 54.6303V48.3377C141.198 46.4918 140.813 45.1774 140.043 44.3943C139.272 43.6112 138.04 43.2196 136.346 43.2196H133.771V59.5525H126.345ZM133.771 37.5143H136.676C138.15 37.5143 139.261 37.1974 140.01 36.5634C140.758 35.9109 141.132 34.8108 141.132 33.2633V29.3199C141.132 27.8843 140.835 26.8402 140.241 26.1876C139.646 25.5164 138.689 25.1808 137.369 25.1808H133.771V37.5143Z" fill="#26AD60"/>
<path d="M156.922 59.5525V19.4475H177.187V25.1808H164.348V36.3677H174.546V42.073H164.348V53.8192H177.187V59.5525H156.922Z" fill="#26AD60"/>
<path d="M185.187 59.5525V19.4475H205.453V25.1808H192.614V36.3677H202.812V42.073H192.614V53.8192H205.453V59.5525H185.187Z" fill="#26AD60"/>
<path d="M213.387 59.5525V19.4475H222.695L230.352 43.4714V19.4475H236.986V59.5525H229.329L220.087 30.5225V59.5525H213.387Z" fill="#26AD60"/>
<g clip-path="url(#clip1_1543_3778)">
<path d="M45.687 60.3576C41.64 60.2071 37.6305 59.8212 33.6682 59.2094C31.8423 59.9059 30.0353 60.6306 28.2376 61.3741C25.2164 62.6259 22.2329 63.9435 19.3058 65.3176C16.4917 66.6447 13.7247 68.0376 10.9858 69.4871C14.9388 70.8329 18.967 71.9341 23.0705 72.7906C25.64 71.5953 28.2376 70.4565 30.8729 69.3647C35.767 67.3412 40.7647 65.4871 45.8847 63.8212C50.44 62.3435 55.0141 61.0447 59.5976 59.8965C54.9388 60.3671 50.2894 60.5176 45.6776 60.3482L45.687 60.3576Z" fill="#077737"/>
<path d="M61.2917 59.4918C60.727 59.6235 60.1623 59.7741 59.607 59.9153C55.0235 61.0541 50.4494 62.3529 45.8941 63.84C40.7741 65.5059 35.767 67.36 30.8823 69.3835C28.247 70.4753 25.6494 71.6235 23.08 72.8094C21.5741 73.5059 20.0776 74.2212 18.6 74.9553C28.0117 80.16 39.4659 81.6188 50.5059 78.0329C53.7341 76.9882 56.727 75.567 59.4753 73.8447C65.9412 69.7882 70.9859 64.0376 74.2235 57.3929C74.3176 57.1953 74.4117 56.9976 74.5059 56.8C70.1012 57.5529 65.6964 58.447 61.2917 59.5106V59.4918Z" fill="url(#paint0_linear_1543_3778)"/>
<path d="M22.1388 35.6611C16.8117 38.0423 11.72 40.7529 6.86348 43.7553C5.68701 44.4894 4.51995 45.2329 3.3623 45.9953C5.29172 46.7482 7.23995 47.4353 9.20701 48.0658C9.84701 48.2729 10.487 48.4706 11.127 48.6588C18.4117 44.3482 26.2141 40.7058 34.4964 37.8164C30.3176 37.3459 26.1952 36.6211 22.1294 35.6517L22.1388 35.6611Z" fill="#077737"/>
<path d="M11.7388 24.6212C17.3953 20.9882 23.5976 18.0047 30.2988 15.8212C32.4541 15.1247 34.6094 14.5412 36.7741 14.033C32.5482 13.6094 28.3788 12.9224 24.2753 11.9906C17.3858 14.6635 11.08 18.2118 5.40466 22.4565C7.49407 23.2471 9.60231 23.9624 11.7388 24.6118V24.6212Z" fill="#077737"/>
<path d="M25.6494 1.53414C25.1411 1.70355 24.6423 1.88237 24.1435 2.07061C20.0306 3.64237 16.4353 6.01414 13.4706 8.93179C9.65879 12.6871 6.88232 17.3647 5.39526 22.4659C5.39526 22.4659 5.39526 22.4659 5.40468 22.4659C11.08 18.2212 17.3859 14.673 24.2753 12C25.6776 11.4541 27.1082 10.9365 28.5576 10.4659C37.1317 7.68002 45.8282 6.44708 54.3553 6.56943C46.487 0.451785 35.8329 -1.7788 25.6494 1.53414Z" fill="url(#paint1_linear_1543_3778)"/>
<path d="M63.3059 12.3576C62.1577 12.2353 61 12.1412 59.833 12.0659C52.2377 11.6047 44.4824 12.2259 36.7648 14.0329C34.6 14.5412 32.4353 15.1247 30.2895 15.8212C23.5977 17.9953 17.3859 20.9788 11.7295 24.6212C9.24475 26.2212 6.8824 27.9529 4.61417 29.7882C4.46358 29.9106 4.3224 30.0329 4.17181 30.1553C3.2777 30.8988 2.39299 31.6518 1.53652 32.4235C1.23534 36.7718 1.74358 41.2424 3.16475 45.6377C3.2024 45.7506 3.24005 45.8541 3.2777 45.9671C3.30593 45.9765 3.33417 45.9859 3.35299 45.9953C4.50122 45.2329 5.66828 44.4894 6.85417 43.7553C11.7106 40.7529 16.8024 38.0424 22.1295 35.6612C35.1353 29.8451 51.5219 25.7181 65.64 24.6494C67.0424 24.5459 68.4542 24.4612 69.8565 24.4047C69.8189 24.2729 69.7812 24.1318 69.7342 24C68.3036 19.6047 66.0824 15.6894 63.2871 12.3482L63.3059 12.3576Z" fill="url(#paint2_linear_1543_3778)"/>
<path d="M77.7906 33.4306C77.64 32.48 77.4423 31.52 77.2165 30.5694C75.2306 30.5694 73.2353 30.6165 71.2306 30.7106C50.1251 31.6865 29.3309 37.917 11.1459 48.6776C10.7882 48.8941 10.4306 49.1012 10.0729 49.3176C9.01881 49.9576 7.9741 50.6165 6.93881 51.2847C6.59999 51.5012 6.27058 51.7176 5.93175 51.9435C4.25646 53.0447 2.61881 54.1835 1.0094 55.3506C3.32469 60.8941 6.77881 65.6753 10.9953 69.5153C13.7247 68.0659 16.4917 66.6729 19.3153 65.3459C22.2423 63.9623 25.2259 62.6447 28.247 61.4023C30.0447 60.6588 31.8518 59.9341 33.6776 59.2376C36.84 58.0329 40.0494 56.9035 43.2965 55.84C48.4259 54.1741 53.5835 52.7247 58.7412 51.4917C58.9576 51.4447 59.1741 51.3976 59.3812 51.3412C61.5741 50.9365 63.7764 50.4565 65.9694 49.9012C66.7412 49.7412 67.5129 49.5812 68.2847 49.4306C71.3435 48.847 74.4023 48.3482 77.4612 47.9153C77.5835 47.3317 77.687 46.7576 77.7812 46.1647C78.4494 42.0235 78.487 37.7412 77.7906 33.4494V33.4306Z" fill="url(#paint3_linear_1543_3778)"/>
<path d="M52.1529 77.1953C41.1317 80.7812 29.687 79.3318 20.2847 74.1365C19.72 74.4094 19.1553 74.6635 18.6 74.9459C28.0117 80.1506 39.4659 81.6094 50.5059 78.0235C52.6706 77.3177 54.7223 76.4329 56.6706 75.4165C55.2212 76.0941 53.7153 76.6871 52.1529 77.1953Z" fill="#26AD60"/>
<path d="M13.4612 8.92235C9.64939 12.6776 6.87292 17.3553 5.38586 22.4565C5.38586 22.4565 5.38586 22.4565 5.39528 22.4565C5.97881 22.0141 6.58116 21.5906 7.18351 21.1671C8.69881 16.2447 11.4094 11.7365 15.1082 8.09411C17.1788 6.06117 19.5506 4.30117 22.1859 2.8894C18.8823 4.41411 15.9459 6.46588 13.4612 8.92235Z" fill="#26AD60"/>
<path d="M4.62357 29.7882C4.07768 30.2494 2.07298 31.9435 1.54592 32.4235C1.24474 36.7717 1.75298 41.2423 3.17415 45.6376C3.2118 45.7506 3.24945 45.8541 3.2871 45.967C3.31533 45.9764 3.34357 45.9859 3.36239 45.9953C3.91768 45.6282 4.48239 45.28 5.03768 44.9223C5.01886 44.8753 5.00004 44.8188 4.98121 44.7717C3.49415 40.1976 2.56239 33.5623 4.60474 29.7882H4.62357Z" fill="#26AD60"/>
<path d="M4.39765 52.96C3.79529 53.3836 1.59294 54.8988 1 55.3318C3.31529 60.8753 6.76941 65.6565 10.9859 69.4965C11.6541 69.1483 12.3224 68.8094 12.9906 68.4612C8.59529 66.0141 5.15059 61.7883 4.39765 52.9694V52.96Z" fill="#26AD60"/>
<path d="M23.0801 72.8C26.0071 75.1624 29.4613 77.4683 33.5271 79.7271C37.1695 80.1506 40.906 80.0659 44.6518 79.4447C40.2283 77.6659 34.2801 75.0777 28.6989 70.3059C26.8165 71.1153 24.9342 71.9436 23.0895 72.8H23.0801Z" fill="#28C86C"/>
<path d="M21.5459 3.20001C19.0706 4.41413 16.8118 5.92942 14.7977 7.68942C12.7741 11.1624 10.4777 15.5294 8.62354 20.1882C11.0706 18.5412 13.6212 17.0165 16.2847 15.6235C17.8659 10.6635 19.8235 6.41884 21.5365 3.20001H21.5459Z" fill="#28C86C"/>
<path d="M13.5365 39.9153C12.9059 33.9389 13.3483 28.2165 14.3742 23.0024C13.48 23.5294 12.5953 24.0659 11.7294 24.6212C9.72474 25.9106 7.81415 27.313 5.95063 28.7624C5.18827 32.2824 4.89651 35.7553 5.38592 38.9459C5.65886 40.6871 5.95063 42.4094 6.28945 44.1224C6.4871 44 6.67533 43.8777 6.86357 43.7553C9.03768 42.4094 11.2683 41.1294 13.5365 39.9059V39.9153Z" fill="#28C86C"/>
<path d="M11.1365 48.6683C10.7788 48.8847 10.4212 49.0918 10.0635 49.3083C9.32939 49.7506 8.6141 50.2118 7.8988 50.6636C9.56469 56.1506 12.1529 61.4871 16.6235 66.6259C17.5176 66.1836 18.4023 65.7412 19.3059 65.3177C20.3976 64.8 21.4988 64.3106 22.6094 63.8118C19.3059 59.4071 16.4823 53.8259 14.7129 46.6353C13.5082 47.2941 12.3223 47.9624 11.1459 48.6588L11.1365 48.6683Z" fill="#28C86C"/>
</g>
</g>
<defs>
<linearGradient id="paint0_linear_1543_3778" x1="43.3059" y1="68.7906" x2="82.5315" y2="59.3958" gradientUnits="userSpaceOnUse">
<stop stop-color="#26AD60"/>
<stop offset="1" stop-color="#2CC66E"/>
</linearGradient>
<linearGradient id="paint1_linear_1543_3778" x1="27.0317" y1="11.6084" x2="61.7254" y2="4.09065" gradientUnits="userSpaceOnUse">
<stop stop-color="#26AD60"/>
<stop offset="1" stop-color="#2CC66E"/>
</linearGradient>
<linearGradient id="paint2_linear_1543_3778" x1="31.682" y1="29.5256" x2="80.4855" y2="19.7854" gradientUnits="userSpaceOnUse">
<stop stop-color="#26AD60"/>
<stop offset="1" stop-color="#2CC66E"/>
</linearGradient>
<linearGradient id="paint3_linear_1543_3778" x1="35.1647" y1="50.6918" x2="90.3553" y2="39.8023" gradientUnits="userSpaceOnUse">
<stop stop-color="#26AD60"/>
<stop offset="1" stop-color="#2CC66E"/>
</linearGradient>
<clipPath id="clip0_1543_3778">
<rect width="345" height="80" fill="white"/>
</clipPath>
<clipPath id="clip1_1543_3778">
<rect width="77.2988" height="80" fill="white" transform="translate(1)"/>
</clipPath>
</defs>
</svg>
